<?xml version="1.0" encoding="UTF-8"?>
<!--Generator: Apple Native CoreSVG 341-->
<!DOCTYPE svg
PUBLIC "-//W3C//DTD SVG 1.1//EN"
       "http://www.w3.org/Graphics/SVG/1.1/DTD/svg11.dtd">
<svg version="1.1" xmlns="http://www.w3.org/2000/svg" xmlns:xlink="http://www.w3.org/1999/xlink" viewBox="0 0 3300 2200">
 <!--glyph: "", point size: 100.0, font version: "21.0d4e1", template writer version: "138.0.0"-->
 <style>.defaults {-sfsymbols-variable-value-mode:color;-sfsymbols-draw-reverses-motion-groups:true}

.monochrome-0 {-sfsymbols-motion-group:1;-sfsymbols-layer-tags:-1ddc0badad5da889}
.monochrome-1 {opacity:0.0;-sfsymbols-clear-behind:true;-sfsymbols-motion-group:0;-sfsymbols-layer-tags:-1ddc0badad5da889}

.multicolor-0:systemIndigoColor {-sfsymbols-motion-group:1;-sfsymbols-layer-tags:-1ddc0badad5da889}
.multicolor-1:black {-sfsymbols-motion-group:0;-sfsymbols-layer-tags:-1ddc0badad5da889}

.hierarchical-0:secondary {-sfsymbols-motion-group:1;-sfsymbols-layer-tags:-1ddc0badad5da889}
.hierarchical-1:primary {-sfsymbols-motion-group:0;-sfsymbols-layer-tags:-1ddc0badad5da889}

.SFSymbolsPreviewWireframe {fill:none;opacity:1.0;stroke:black;stroke-width:0.5}
</style>
 <g id="Notes">
  <rect height="2200" id="artboard" style="fill:white;opacity:1" width="3300" x="0" y="0"/>
  <line style="fill:none;stroke:black;opacity:1;stroke-width:0.5;" x1="263" x2="3036" y1="292" y2="292"/>
  <text style="stroke:none;fill:black;font-family:sans-serif;font-size:13;font-weight:bold;" transform="matrix(1 0 0 1 263 322)">Weight/Scale Variations</text>
  <text style="stroke:none;fill:black;font-family:sans-serif;font-size:13;text-anchor:middle;" transform="matrix(1 0 0 1 559.711 322)">Ultralight</text>
  <text style="stroke:none;fill:black;font-family:sans-serif;font-size:13;text-anchor:middle;" transform="matrix(1 0 0 1 856.422 322)">Thin</text>
  <text style="stroke:none;fill:black;font-family:sans-serif;font-size:13;text-anchor:middle;" transform="matrix(1 0 0 1 1153.13 322)">Light</text>
  <text style="stroke:none;fill:black;font-family:sans-serif;font-size:13;text-anchor:middle;" transform="matrix(1 0 0 1 1449.84 322)">Regular</text>
  <text style="stroke:none;fill:black;font-family:sans-serif;font-size:13;text-anchor:middle;" transform="matrix(1 0 0 1 1746.56 322)">Medium</text>
  <text style="stroke:none;fill:black;font-family:sans-serif;font-size:13;text-anchor:middle;" transform="matrix(1 0 0 1 2043.27 322)">Semibold</text>
  <text style="stroke:none;fill:black;font-family:sans-serif;font-size:13;text-anchor:middle;" transform="matrix(1 0 0 1 2339.98 322)">Bold</text>
  <text style="stroke:none;fill:black;font-family:sans-serif;font-size:13;text-anchor:middle;" transform="matrix(1 0 0 1 2636.69 322)">Heavy</text>
  <text style="stroke:none;fill:black;font-family:sans-serif;font-size:13;text-anchor:middle;" transform="matrix(1 0 0 1 2933.4 322)">Black</text>
  <line style="fill:none;stroke:black;opacity:1;stroke-width:0.5;" x1="263" x2="3036" y1="1903" y2="1903"/>
  <g transform="matrix(0.2 0 0 0.2 263 1933)">
   <path d="m46.2402 4.15039c21.7773 0 39.4531-17.627 39.4531-39.4043s-17.6758-39.4043-39.4531-39.4043c-21.7285 0-39.4043 17.627-39.4043 39.4043s17.6758 39.4043 39.4043 39.4043Zm0-7.42188c-17.6758 0-31.9336-14.3066-31.9336-31.9824s14.2578-31.9824 31.9336-31.9824 31.9824 14.3066 31.9824 31.9824-14.3066 31.9824-31.9824 31.9824Zm3.61328-17.7734v-28.4668c0-2.24609-1.46484-3.75977-3.71094-3.75977-2.14844 0-3.61328 1.51367-3.61328 3.75977v28.4668c0 2.19727 1.46484 3.71094 3.61328 3.71094 2.24609 0 3.71094-1.51367 3.71094-3.71094Zm-17.8223-10.5957h28.418c2.19727 0 3.71094-1.46484 3.71094-3.61328 0-2.19727-1.51367-3.71094-3.71094-3.71094h-28.418c-2.24609 0-3.75977 1.51367-3.75977 3.71094 0 2.14844 1.51367 3.61328 3.75977 3.61328Z"/>
  </g>
  <g transform="matrix(0.2 0 0 0.2 281.506 1933)">
   <path d="m58.5449 14.5508c27.4902 0 49.8047-22.3145 49.8047-49.8047s-22.3145-49.8047-49.8047-49.8047-49.8047 22.3145-49.8047 49.8047 22.3145 49.8047 49.8047 49.8047Zm0-8.30078c-22.9492 0-41.5039-18.5547-41.5039-41.5039s18.5547-41.5039 41.5039-41.5039 41.5039 18.5547 41.5039 41.5039-18.5547 41.5039-41.5039 41.5039Zm4.05273-23.0957v-36.9141c0-2.49023-1.70898-4.19922-4.15039-4.19922-2.39258 0-4.05273 1.70898-4.05273 4.19922v36.9141c0 2.44141 1.66016 4.15039 4.05273 4.15039 2.44141 0 4.15039-1.66016 4.15039-4.15039Zm-22.5586-14.4043h36.9629c2.44141 0 4.15039-1.61133 4.15039-4.00391 0-2.44141-1.70898-4.15039-4.15039-4.15039h-36.9629c-2.49023 0-4.15039 1.70898-4.15039 4.15039 0 2.39258 1.66016 4.00391 4.15039 4.00391Z"/>
  </g>
  <g transform="matrix(0.2 0 0 0.2 304.924 1933)">
   <path d="m74.8535 28.3203c35.1074 0 63.623-28.4668 63.623-63.5742s-28.5156-63.623-63.623-63.623-63.5742 28.5156-63.5742 63.623 28.4668 63.5742 63.5742 63.5742Zm0-9.08203c-30.127 0-54.4922-24.3652-54.4922-54.4922s24.3652-54.4922 54.4922-54.4922 54.4922 24.3652 54.4922 54.4922-24.3652 54.4922-54.4922 54.4922Zm4.44336-30.3223v-48.4863c0-2.73438-1.85547-4.63867-4.54102-4.63867-2.58789 0-4.44336 1.9043-4.44336 4.63867v48.4863c0 2.68555 1.85547 4.58984 4.44336 4.58984 2.68555 0 4.54102-1.85547 4.54102-4.58984Zm-28.7109-19.7754h48.4863c2.68555 0 4.58984-1.80664 4.58984-4.39453 0-2.73438-1.85547-4.58984-4.58984-4.58984h-48.4863c-2.73438 0-4.58984 1.85547-4.58984 4.58984 0 2.58789 1.85547 4.39453 4.58984 4.39453Z"/>
  </g>
  <text style="stroke:none;fill:black;font-family:sans-serif;font-size:13;font-weight:bold;" transform="matrix(1 0 0 1 263 1953)">Design Variations</text>
  <text style="stroke:none;fill:black;font-family:sans-serif;font-size:13;" transform="matrix(1 0 0 1 263 1971)">Symbols are supported in up to nine weights and three scales.</text>
  <text style="stroke:none;fill:black;font-family:sans-serif;font-size:13;" transform="matrix(1 0 0 1 263 1989)">For optimal layout with text and other symbols, vertically align</text>
  <text style="stroke:none;fill:black;font-family:sans-serif;font-size:13;" transform="matrix(1 0 0 1 263 2007)">symbols with the adjacent text.</text>
  <line style="fill:none;stroke:#00AEEF;stroke-width:0.5;opacity:1.0;" x1="776" x2="776" y1="1919" y2="1933"/>
  <g transform="matrix(0.2 0 0 0.2 776 1933)">
   <path d="m16.5527 0.78125c2.58789 0 3.85742-0.976562 4.78516-3.71094l20.5566-57.5195h0.244141l20.6055 57.5195c0.927734 2.73438 2.19727 3.71094 4.73633 3.71094 2.58789 0 4.24805-1.5625 4.24805-4.00391 0-0.830078-0.146484-1.61133-0.537109-2.63672l-22.9004-60.9863c-1.12305-2.97852-3.125-4.49219-6.25-4.49219-3.02734 0-5.07812 1.46484-6.15234 4.44336l-22.9004 61.084c-0.390625 1.02539-0.537109 1.80664-0.537109 2.63672 0 2.44141 1.5625 3.95508 4.10156 3.95508Zm10.2051-20.9473h30.6641c2.00195 0 3.66211-1.66016 3.66211-3.66211 0-2.05078-1.66016-3.66211-3.66211-3.66211h-30.6641c-2.00195 0-3.66211 1.61133-3.66211 3.66211 0 2.00195 1.66016 3.66211 3.66211 3.66211Z"/>
  </g>
  <line style="fill:none;stroke:#00AEEF;stroke-width:0.5;opacity:1.0;" x1="792.836" x2="792.836" y1="1919" y2="1933"/>
  <text style="stroke:none;fill:black;font-family:sans-serif;font-size:13;font-weight:bold;" transform="matrix(1 0 0 1 776 1953)">Margins</text>
  <text style="stroke:none;fill:black;font-family:sans-serif;font-size:13;" transform="matrix(1 0 0 1 776 1971)">Leading and trailing margins on the left and right side of each symbol</text>
  <text style="stroke:none;fill:black;font-family:sans-serif;font-size:13;" transform="matrix(1 0 0 1 776 1989)">can be adjusted by modifying the x-location of the margin guidelines.</text>
  <text style="stroke:none;fill:black;font-family:sans-serif;font-size:13;" transform="matrix(1 0 0 1 776 2007)">Modifications are automatically applied proportionally to all</text>
  <text style="stroke:none;fill:black;font-family:sans-serif;font-size:13;" transform="matrix(1 0 0 1 776 2025)">scales and weights.</text>
  <g transform="matrix(0.2 0 0 0.2 1289 1933)">
   <path d="m14.209 13.1348 7.86133 7.86133c4.29688 4.39453 9.32617 4.10156 13.8672-1.02539l60.6934-68.2129-4.88281-4.88281-60.2539 67.6758c-1.80664 1.95312-3.4668 2.44141-5.81055 0.0976562l-5.17578-5.12695c-2.29492-2.29492-1.80664-3.95508 0.195312-5.81055l67.4805-62.1582-4.88281-4.83398-68.0664 62.5977c-4.98047 4.58984-5.32227 9.47266-1.02539 13.8184Zm44.873-97.4609c-2.05078 2.00195-2.24609 4.88281-1.07422 6.78711 1.12305 1.80664 3.4668 3.02734 6.5918 2.24609 5.85938-1.66016 12.5977-2.39258 18.8965 0.927734l-2.68555 7.12891c-1.61133 4.00391-0.732422 6.88477 1.70898 9.42383l10.2539 10.3027c2.34375 2.39258 4.54102 2.44141 7.08008 1.95312l4.44336-0.732422 2.58789 2.53906-0.195312 2.24609c-0.0976562 2.29492 0.537109 4.29688 2.7832 6.49414l3.36914 3.32031c2.29492 2.29492 5.51758 2.49023 7.8125 0.195312l12.9883-13.0371c2.29492-2.34375 2.14844-5.37109-0.195312-7.66602l-3.41797-3.41797c-2.19727-2.19727-4.05273-3.02734-6.34766-2.88086l-2.34375 0.244141-2.44141-2.44141 1.02539-4.6875c0.634766-2.73438-0.244141-4.98047-2.88086-7.61719l-11.2793-11.1816c-12.9395-12.8418-35.5957-11.0352-46.6797-0.146484Zm7.08008 2.05078c8.78906-6.39648 25.9766-5.66406 33.6914 1.95312l12.3047 12.207c1.02539 1.02539 1.2207 1.80664 0.927734 3.32031l-1.46484 6.64062 6.73828 6.68945 4.39453-0.244141c1.12305-0.0488281 1.51367 0.0488281 2.34375 0.878906l2.53906 2.49023-10.8398 10.8398-2.49023-2.49023c-0.830078-0.878906-0.976562-1.2207-0.927734-2.39258l0.292969-4.3457-6.68945-6.73828-6.83594 1.17188c-1.41602 0.292969-2.05078 0.195312-3.17383-0.878906l-8.93555-8.88672c-1.07422-1.02539-1.17188-1.70898-0.488281-3.36914l4.58984-11.4746c-6.10352-6.34766-17.041-7.51953-25.5859-4.58984-0.683594 0.244141-0.927734-0.390625-0.390625-0.78125Z"/>
  </g>
  <text style="stroke:none;fill:black;font-family:sans-serif;font-size:13;font-weight:bold;" transform="matrix(1 0 0 1 1289 1953)">Exporting</text>
  <text style="stroke:none;fill:black;font-family:sans-serif;font-size:13;" transform="matrix(1 0 0 1 1289 1971)">Symbols should be outlined when exporting to ensure the</text>
  <text style="stroke:none;fill:black;font-family:sans-serif;font-size:13;" transform="matrix(1 0 0 1 1289 1989)">design is preserved when submitting to Xcode.</text>
  <text id="template-version" style="stroke:none;fill:black;font-family:sans-serif;font-size:13;text-anchor:end;" transform="matrix(1 0 0 1 3036 1933)">Template v.7.0</text>
  <text style="stroke:none;fill:black;font-family:sans-serif;font-size:13;text-anchor:end;" transform="matrix(1 0 0 1 3036 1951)">Requires Xcode 17 or greater</text>
  <text id="descriptive-name" style="stroke:none;fill:black;font-family:sans-serif;font-size:13;text-anchor:end;" transform="matrix(1 0 0 1 3036 1969)">Generated from lifi.v4</text>
  <text style="stroke:none;fill:black;font-family:sans-serif;font-size:13;text-anchor:end;" transform="matrix(1 0 0 1 3036 1987)">Typeset at 100.0 points</text>
  <text style="stroke:none;fill:black;font-family:sans-serif;font-size:13;" transform="matrix(1 0 0 1 263 726)">Small</text>
  <text style="stroke:none;fill:black;font-family:sans-serif;font-size:13;" transform="matrix(1 0 0 1 263 1156)">Medium</text>
  <text style="stroke:none;fill:black;font-family:sans-serif;font-size:13;" transform="matrix(1 0 0 1 263 1586)">Large</text>
 </g>
 <g id="Guides">
  <g id="H-reference" style="fill:#27AAE1;stroke:none;" transform="matrix(1 0 0 1 339 696)">
   <path d="M0.993654 0L3.63775 0L29.3281-67.1323L30.0303-67.1323L30.0303-70.459L28.1226-70.459ZM11.6885-24.4799L46.9815-24.4799L46.2315-26.7285L12.4385-26.7285ZM55.1196 0L57.7637 0L30.6382-70.459L29.4326-70.459L29.4326-67.1323Z"/>
  </g>
  <line id="Baseline-S" style="fill:none;stroke:#27AAE1;opacity:1;stroke-width:0.5;" x1="263" x2="3036" y1="696" y2="696"/>
  <line id="Capline-S" style="fill:none;stroke:#27AAE1;opacity:1;stroke-width:0.5;" x1="263" x2="3036" y1="625.541" y2="625.541"/>
  <g id="H-reference" style="fill:#27AAE1;stroke:none;" transform="matrix(1 0 0 1 339 1126)">
   <path d="M0.993654 0L3.63775 0L29.3281-67.1323L30.0303-67.1323L30.0303-70.459L28.1226-70.459ZM11.6885-24.4799L46.9815-24.4799L46.2315-26.7285L12.4385-26.7285ZM55.1196 0L57.7637 0L30.6382-70.459L29.4326-70.459L29.4326-67.1323Z"/>
  </g>
  <line id="Baseline-M" style="fill:none;stroke:#27AAE1;opacity:1;stroke-width:0.5;" x1="263" x2="3036" y1="1126" y2="1126"/>
  <line id="Capline-M" style="fill:none;stroke:#27AAE1;opacity:1;stroke-width:0.5;" x1="263" x2="3036" y1="1055.54" y2="1055.54"/>
  <g id="H-reference" style="fill:#27AAE1;stroke:none;" transform="matrix(1 0 0 1 339 1556)">
   <path d="M0.993654 0L3.63775 0L29.3281-67.1323L30.0303-67.1323L30.0303-70.459L28.1226-70.459ZM11.6885-24.4799L46.9815-24.4799L46.2315-26.7285L12.4385-26.7285ZM55.1196 0L57.7637 0L30.6382-70.459L29.4326-70.459L29.4326-67.1323Z"/>
  </g>
  <line id="Baseline-L" style="fill:none;stroke:#27AAE1;opacity:1;stroke-width:0.5;" x1="263" x2="3036" y1="1556" y2="1556"/>
  <line id="Capline-L" style="fill:none;stroke:#27AAE1;opacity:1;stroke-width:0.5;" x1="263" x2="3036" y1="1485.54" y2="1485.54"/>
  <line id="right-margin-Black-S" style="fill:none;stroke:#FF3B30;stroke-width:0.5;opacity:1.0;" x1="2979.4" x2="2979.4" y1="600.785" y2="720.121"/>
  <line id="left-margin-Black-S" style="fill:none;stroke:#00AEEF;stroke-width:0.5;opacity:1.0;" x1="2887.4" x2="2887.4" y1="600.785" y2="720.121"/>
  <line id="right-margin-Regular-S" style="fill:none;stroke:#FF3B30;stroke-width:0.5;opacity:1.0;" x1="1495.84" x2="1495.84" y1="600.785" y2="720.121"/>
  <line id="left-margin-Regular-S" style="fill:none;stroke:#00AEEF;stroke-width:0.5;opacity:1.0;" x1="1403.84" x2="1403.84" y1="600.785" y2="720.121"/>
  <line id="right-margin-Ultralight-S" style="fill:none;stroke:#FF3B30;stroke-width:0.5;opacity:1.0;" x1="605.711" x2="605.711" y1="600.785" y2="720.121"/>
  <line id="left-margin-Ultralight-S" style="fill:none;stroke:#00AEEF;stroke-width:0.5;opacity:1.0;" x1="513.711" x2="513.711" y1="600.785" y2="720.121"/>
 </g>
 <g id="Symbols">
  <g id="Black-S" transform="matrix(1 0 0 1 2887.4 696)">
   <path class="monochrome-0 multicolor-0:systemIndigoColor hierarchical-0:secondary SFSymbolsPreviewWireframe" d="M0.29112-23.6289C0.29112-23.6289-4.76653-55.7194 27.2798-67.7927C45.1404-74.5215 64.0638-65.4026 64.0638-65.4026C64.0598-65.4026 70.8164-61.5806 75.1685-61.4345C76.9789-61.3736 80.8995-62.029 82.4757-62.1461C86.8865-62.475 91.0328-62.0425 91.9283-54.9162C92.5737-49.7806 88.6503-48.4771 88.6503-48.4771C88.6503-48.4771 85.9624-48.039 84.6435-47.9251C82.4831-47.7385 80.3371-46.6702 80.5603-43.9965C80.9204-39.69 83.9422-35.1172 84.9133-30.6867C85.8844-26.2563 86.4864-11.3241 70.6683-4.283C55.1495 2.6245 18.8773 1.9681 3.2703-15.4995C3.2703-15.4995 0.619679-19.3558 0.29112-23.6289ZM4.59209-25.8214C4.59209-25.8214 3.38444-21.7694 8.19274-16.8776C13.001-11.9858 31.8952-0.2949 64.1862-8.1161C76.0781-10.9964 80.4095-16.8679 81.4704-22.7184C82.6446-29.1941 79.8501-32.7575 79.8501-32.7575C79.8501-32.7575 78.7636-35.8524 74.4446-35.7828C71.4741-35.7351 68.4047-33.1254 69.3452-28.9759C71.2582-20.536 71.381-16.3031 67.524-15.7299C64.7195-15.313 62.7254-16.0949 62.0379-18.7923C61.4798-20.9782 61.2151-23.1812 61.1498-28.0566C61.1498-28.0566 60.7967-33.1648 56.7788-32.8398C54.1116-32.6237 51.3152-26.9527 51.3152-26.9527C51.3152-26.9527 47.5491-19.1135 42.4129-19.8809C37.2768-20.6484 36.8006-26.6308 29.5394-25.5951C22.2781-24.5595 14.4924-19.1008 8.99767-21.2092C4.43295-22.96 4.59209-25.8214 4.59209-25.8214ZM14.0463-48.2314C14.0463-48.2314 16.768-52.3313 18.9216-50.4497C20.5536-49.0238 17.1805-45.0048 17.1805-45.0048C17.1805-45.0048 14.5628-41.7172 13.0016-43.5932C11.7835-45.0574 14.0467-48.2314 14.0467-48.2314C14.0466-48.2314 14.0464-48.2314 14.0463-48.2314ZM23.4487-56.7012C23.4487-56.7012 26.369-58.5996 27.2794-57.1046C28.1898-55.6096 26.5119-53.7793 25.0159-52.668C23.5198-51.5567 21.8368-51.7042 21.3592-52.8696C21.0732-53.5682 21.7112-54.8133 22.4034-55.693C22.7094-56.0706 23.0606-56.4092 23.449-56.7012C23.4489-56.7012 23.4488-56.7012 23.4487-56.7012Z"/>
   <path class="monochrome-1 multicolor-1:black hierarchical-1:primary SFSymbolsPreviewWireframe" d="M42.4279-47.6265C45.6781-46.3493 48.9284-45.072 52.1786-43.7948C52.1786-43.7948 53.6145-43.4026 53.5715-41.9798C53.5285-40.557 52.5273-40.3666 52.5273-40.3666C49.6252-38.6188 46.7232-36.8711 43.8211-35.1233C43.8211-35.1233 42.8148-34.7971 42.2549-35.93C41.8062-36.8363 42.4289-37.745 42.4289-37.745C44.5183-39.0894 46.6077-40.4338 48.6971-41.7782C45.969-42.8537 43.241-43.9293 40.5129-45.0048C40.5129-45.0048 39.7339-45.6434 40.1647-46.8198C40.5955-47.9961 41.7337-47.8983 42.4282-47.6265C42.4281-47.6265 42.428-47.6265 42.4279-47.6265ZM67.5011-44.1981C69.3003-45.9459 71.0995-47.6936 72.8987-49.4414C73.1267-49.7756 73.2337-50.1778 73.2021-50.5812C73.1704-50.9847 73.0019-51.3652 72.7246-51.6597C71.8914-52.5831 70.6351-51.4579 70.6351-51.4579C68.1975-49.038 65.7598-46.618 63.3222-44.1981C63.3222-44.1981 62.6644-43.9629 62.8181-42.6177C62.8835-42.0485 63.1782-41.3027 64.0179-41.1733C67.2101-41.0389 70.4023-40.9044 73.5945-40.77C73.5945-40.77 74.75-40.9141 74.8133-42.3832C74.8767-43.8522 73.4204-43.9965 73.4204-43.9965C71.4473-44.0637 69.4742-44.1309 67.5011-44.1981Z"/>
  </g>
  <g id="Regular-S" transform="matrix(1 0 0 1 1403.84 696)">
   <path class="monochrome-0 multicolor-0:systemIndigoColor hierarchical-0:secondary SFSymbolsPreviewWireframe" d="M0.29112-23.6289C0.29112-23.6289-4.76653-55.7194 27.2798-67.7927C45.1404-74.5215 64.0638-65.4026 64.0638-65.4026C64.0598-65.4026 70.8164-61.5806 75.1685-61.4345C76.9789-61.3736 80.8995-62.029 82.4757-62.1461C86.8865-62.475 91.0328-62.0425 91.9283-54.9162C92.5737-49.7806 88.6503-48.4771 88.6503-48.4771C88.6503-48.4771 85.9624-48.039 84.6435-47.9251C82.4831-47.7385 80.3371-46.6702 80.5603-43.9965C80.9204-39.69 83.9422-35.1172 84.9133-30.6867C85.8844-26.2563 86.4864-11.3241 70.6683-4.283C55.1495 2.6245 18.8773 1.9681 3.2703-15.4995C3.2703-15.4995 0.619679-19.3558 0.29112-23.6289ZM4.59209-25.8214C4.59209-25.8214 3.38444-21.7694 8.19274-16.8776C13.001-11.9858 31.8952-0.2949 64.1862-8.1161C76.0781-10.9964 80.4095-16.8679 81.4704-22.7184C82.6446-29.1941 79.8501-32.7575 79.8501-32.7575C79.8501-32.7575 78.7636-35.8524 74.4446-35.7828C71.4741-35.7351 68.4047-33.1254 69.3452-28.9759C71.2582-20.536 71.381-16.3031 67.524-15.7299C64.7195-15.313 62.7254-16.0949 62.0379-18.7923C61.4798-20.9782 61.2151-23.1812 61.1498-28.0566C61.1498-28.0566 60.7967-33.1648 56.7788-32.8398C54.1116-32.6237 51.3152-26.9527 51.3152-26.9527C51.3152-26.9527 47.5491-19.1135 42.4129-19.8809C37.2768-20.6484 36.8006-26.6308 29.5394-25.5951C22.2781-24.5595 14.4924-19.1008 8.99767-21.2092C4.43295-22.96 4.59209-25.8214 4.59209-25.8214ZM14.0463-48.2314C14.0463-48.2314 16.768-52.3313 18.9216-50.4497C20.5536-49.0238 17.1805-45.0048 17.1805-45.0048C17.1805-45.0048 14.5628-41.7172 13.0016-43.5932C11.7835-45.0574 14.0467-48.2314 14.0467-48.2314C14.0466-48.2314 14.0464-48.2314 14.0463-48.2314ZM23.4487-56.7012C23.4487-56.7012 26.369-58.5996 27.2794-57.1046C28.1898-55.6096 26.5119-53.7793 25.0159-52.668C23.5198-51.5567 21.8368-51.7042 21.3592-52.8696C21.0732-53.5682 21.7112-54.8133 22.4034-55.693C22.7094-56.0706 23.0606-56.4092 23.449-56.7012C23.4489-56.7012 23.4488-56.7012 23.4487-56.7012Z"/>
   <path class="monochrome-1 multicolor-1:black hierarchical-1:primary SFSymbolsPreviewWireframe" d="M42.4279-47.6265C45.6781-46.3493 48.9284-45.072 52.1786-43.7948C52.1786-43.7948 53.6145-43.4026 53.5715-41.9798C53.5285-40.557 52.5273-40.3666 52.5273-40.3666C49.6252-38.6188 46.7232-36.8711 43.8211-35.1233C43.8211-35.1233 42.8148-34.7971 42.2549-35.93C41.8062-36.8363 42.4289-37.745 42.4289-37.745C44.5183-39.0894 46.6077-40.4338 48.6971-41.7782C45.969-42.8537 43.241-43.9293 40.5129-45.0048C40.5129-45.0048 39.7339-45.6434 40.1647-46.8198C40.5955-47.9961 41.7337-47.8983 42.4282-47.6265C42.4281-47.6265 42.428-47.6265 42.4279-47.6265ZM67.5011-44.1981C69.3003-45.9459 71.0995-47.6936 72.8987-49.4414C73.1267-49.7756 73.2337-50.1778 73.2021-50.5812C73.1704-50.9847 73.0019-51.3652 72.7246-51.6597C71.8914-52.5831 70.6351-51.4579 70.6351-51.4579C68.1975-49.038 65.7598-46.618 63.3222-44.1981C63.3222-44.1981 62.6644-43.9629 62.8181-42.6177C62.8835-42.0485 63.1782-41.3027 64.0179-41.1733C67.2101-41.0389 70.4023-40.9044 73.5945-40.77C73.5945-40.77 74.75-40.9141 74.8133-42.3832C74.8767-43.8522 73.4204-43.9965 73.4204-43.9965C71.4473-44.0637 69.4742-44.1309 67.5011-44.1981Z"/>
  </g>
  <g id="Ultralight-S" transform="matrix(1 0 0 1 513.711 696)">
   <path class="monochrome-0 multicolor-0:systemIndigoColor hierarchical-0:secondary SFSymbolsPreviewWireframe" d="M0.29112-23.6289C0.29112-23.6289-4.76653-55.7194 27.2798-67.7927C45.1404-74.5215 64.0638-65.4026 64.0638-65.4026C64.0598-65.4026 70.8164-61.5806 75.1685-61.4345C76.9789-61.3736 80.8995-62.029 82.4757-62.1461C86.8865-62.475 91.0328-62.0425 91.9283-54.9162C92.5737-49.7806 88.6503-48.4771 88.6503-48.4771C88.6503-48.4771 85.9624-48.039 84.6435-47.9251C82.4831-47.7385 80.3371-46.6702 80.5603-43.9965C80.9204-39.69 83.9422-35.1172 84.9133-30.6867C85.8844-26.2563 86.4864-11.3241 70.6683-4.283C55.1495 2.6245 18.8773 1.9681 3.2703-15.4995C3.2703-15.4995 0.619679-19.3558 0.29112-23.6289ZM4.59209-25.8214C4.59209-25.8214 3.38444-21.7694 8.19274-16.8776C13.001-11.9858 31.8952-0.2949 64.1862-8.1161C76.0781-10.9964 80.4095-16.8679 81.4704-22.7184C82.6446-29.1941 79.8501-32.7575 79.8501-32.7575C79.8501-32.7575 78.7636-35.8524 74.4446-35.7828C71.4741-35.7351 68.4047-33.1254 69.3452-28.9759C71.2582-20.536 71.381-16.3031 67.524-15.7299C64.7195-15.313 62.7254-16.0949 62.0379-18.7923C61.4798-20.9782 61.2151-23.1812 61.1498-28.0566C61.1498-28.0566 60.7967-33.1648 56.7788-32.8398C54.1116-32.6237 51.3152-26.9527 51.3152-26.9527C51.3152-26.9527 47.5491-19.1135 42.4129-19.8809C37.2768-20.6484 36.8006-26.6308 29.5394-25.5951C22.2781-24.5595 14.4924-19.1008 8.99767-21.2092C4.43295-22.96 4.59209-25.8214 4.59209-25.8214ZM14.0463-48.2314C14.0463-48.2314 16.768-52.3313 18.9216-50.4497C20.5536-49.0238 17.1805-45.0048 17.1805-45.0048C17.1805-45.0048 14.5628-41.7172 13.0016-43.5932C11.7835-45.0574 14.0467-48.2314 14.0467-48.2314C14.0466-48.2314 14.0464-48.2314 14.0463-48.2314ZM23.4487-56.7012C23.4487-56.7012 26.369-58.5996 27.2794-57.1046C28.1898-55.6096 26.5119-53.7793 25.0159-52.668C23.5198-51.5567 21.8368-51.7042 21.3592-52.8696C21.0732-53.5682 21.7112-54.8133 22.4034-55.693C22.7094-56.0706 23.0606-56.4092 23.449-56.7012C23.4489-56.7012 23.4488-56.7012 23.4487-56.7012Z"/>
   <path class="monochrome-1 multicolor-1:black hierarchical-1:primary SFSymbolsPreviewWireframe" d="M42.4279-47.6265C45.6781-46.3493 48.9284-45.072 52.1786-43.7948C52.1786-43.7948 53.6145-43.4026 53.5715-41.9798C53.5285-40.557 52.5273-40.3666 52.5273-40.3666C49.6252-38.6188 46.7232-36.8711 43.8211-35.1233C43.8211-35.1233 42.8148-34.7971 42.2549-35.93C41.8062-36.8363 42.4289-37.745 42.4289-37.745C44.5183-39.0894 46.6077-40.4338 48.6971-41.7782C45.969-42.8537 43.241-43.9293 40.5129-45.0048C40.5129-45.0048 39.7339-45.6434 40.1647-46.8198C40.5955-47.9961 41.7337-47.8983 42.4282-47.6265C42.4281-47.6265 42.428-47.6265 42.4279-47.6265ZM67.5011-44.1981C69.3003-45.9459 71.0995-47.6936 72.8987-49.4414C73.1267-49.7756 73.2337-50.1778 73.2021-50.5812C73.1704-50.9847 73.0019-51.3652 72.7246-51.6597C71.8914-52.5831 70.6351-51.4579 70.6351-51.4579C68.1975-49.038 65.7598-46.618 63.3222-44.1981C63.3222-44.1981 62.6644-43.9629 62.8181-42.6177C62.8835-42.0485 63.1782-41.3027 64.0179-41.1733C67.2101-41.0389 70.4023-40.9044 73.5945-40.77C73.5945-40.77 74.75-40.9141 74.8133-42.3832C74.8767-43.8522 73.4204-43.9965 73.4204-43.9965C71.4473-44.0637 69.4742-44.1309 67.5011-44.1981Z"/>
  </g>
 </g>
</svg>
